<svg width="500" height="500" viewBox="0 0 500 500" fill="none" xmlns="http://www.w3.org/2000/svg">
<path d="M450.844 175.505C452.138 178.476 444.726 180.263 444.243 181.579C442.862 185.329 448.882 183.641 447.028 188.63C445.482 192.796 419.013 218.619 414.013 222.445C409.441 225.943 379.803 241.941 379.682 244.002C397.039 266.195 422.237 280.877 419.167 313.147C418.717 317.928 412.27 331.733 412.621 332.698C413.246 334.419 421.031 336.48 423.421 338.399C454.309 363.235 440.011 396.722 422.401 424.912C423.377 427.621 467.467 423.783 463.739 455.329C460.8 480.241 420.987 469.967 407.906 473.739C405.384 474.463 405.921 480.537 403.783 481.908C391.798 489.605 356.787 481.733 342.982 481.524C340.351 481.48 335.461 486.349 325.625 484.649C316.985 483.147 315.121 478.224 314.452 478.059C312.873 477.676 305.735 480.746 301.524 480.373C297.314 480 292.917 475.812 290.537 475.976C288.158 476.141 286.623 479.671 283.772 480.088C271.14 481.941 239.265 487.127 228.454 484.463C224.276 483.432 223.311 479.255 222.664 479.156C221.985 479.046 213.575 483.334 209.583 483.597C203.235 484.013 176.656 484.298 171.579 483.355C153.531 479.989 157.763 448.728 175.132 445.219C169.89 428.969 143.564 436.579 128.794 435.219C75.3838 430.285 18.5965 387.851 23.0263 329.529C26.1075 289.002 83.7939 225.187 128.059 248.421C73.3443 277.566 112.522 334.013 149.539 357.5C170.932 341.25 160.208 321.864 163.377 299.145C165.789 281.853 175.055 266.963 181.601 251.261C161.787 247.687 141.941 243.399 125.11 231.667C121.579 229.2 100.132 208.772 99.6491 206.733C99.0899 204.342 106.612 204.573 104.013 200.735C103.739 200.329 97.818 200.812 97.4781 194.605C96.9627 185.307 118.465 177.303 120.976 172.215C121.7 170.746 126.086 141.382 125.779 139.77C124.923 135.187 115.603 134.32 112.215 131.645C100.461 122.38 93.6952 104.956 92.1272 90.3729C83.3114 8.36636 170.175 -4.04592 208.64 55.658C217.588 51.0308 267.654 57.2479 269.748 52.7414C270.34 51.4804 268.662 47.9168 269.254 46.0857C278.662 50.4278 274.189 43.2677 277.588 41.7655C280.373 40.5264 283.311 44.6712 286.261 44.9234C289.211 45.1756 309.715 46.1514 310.811 45.5813C311.798 45.0769 319.638 30.351 322.829 26.8642C362.939 -16.9626 412.259 29.4409 409.32 78.465C408.871 86.0528 402.281 100.526 402.763 105.801C403.673 115.691 421.086 143.651 420.471 157.138C423.421 160.757 450.143 173.871 450.855 175.494L450.844 175.505Z" fill="#1A1659"/>
<path d="M440.921 174.353C441.93 177.774 434.627 178.18 434.364 178.75C433.761 180.044 440.559 182.072 436.338 191.14C426.469 212.335 388.224 231.908 368.728 242.884C382.237 253.991 411.919 283.278 413.575 300.987C415.855 325.428 398.531 344.638 374.726 346.502L373.125 344.89C381.886 324.309 373.048 311.118 356.7 299.364C357.676 297.434 388.882 277.982 390.088 276.349C391.151 274.912 391.053 273.75 388.959 274.09C378.849 272.27 369.891 285.625 367.051 286.162C362.906 286.941 360.625 267.083 353.684 291.393C353.07 293.553 353.739 300.132 353.421 300.45C352.961 300.91 346.415 299.835 344.364 300.702C340.505 302.325 336.053 308.695 333.783 309.693C332.434 310.285 329.266 308.531 326.886 309.43C311.875 315.066 289.145 315.844 295.417 336.634C286.985 324.825 294.945 308.849 308.498 306.425C314.298 305.384 320.724 305.921 326.206 305.921C331.689 305.921 333.738 305.014 338.816 301.535C343.202 298.531 344.847 293.86 344.463 287.039C341.108 263.662 286.897 278.564 274.408 289.474C271.36 292.138 263.608 305.011 262.687 305.373C261.349 305.899 254.934 304.825 246.722 305.888C238.509 306.952 231.557 307.083 237.456 313.618C238.706 315 260.252 298.257 270.066 318.761C270.463 319.592 262.61 320.175 262.61 320.175C264.803 324.013 266.447 325.658 272.478 325.658C275.768 339.364 253.956 322.191 270.263 341.02H257.149C257.182 344.825 261.634 346.458 264.803 346.524L263.717 348.158C241.535 351.689 184.573 357.708 173.147 332.555C161.776 307.533 173.202 275.877 187.336 254.594C213.377 256.963 239.967 261.776 265.888 255.515C224.43 253.585 137.127 250.471 112.16 211.667C107.193 203.947 110.844 206.623 113.816 199.594L103.904 193.564C103.805 190.132 123.893 180.208 126.119 174.079C128.684 167.018 128.586 148.969 130.768 139.265C146.996 67.0285 214.331 47.4342 280.121 63.5965L270.285 55.9429L279.035 57.0175L276.272 51.5679C278.235 51.4473 281.963 58.5855 283.399 57.0175C284.101 56.2609 280.011 50.2412 283.937 50.4605L289.956 57.0285C290.263 55.5372 289.573 49.7368 289.956 49.3421C292.939 46.3377 333.476 52.3684 340.296 54.2763C385.932 67.0943 394.616 94.3201 408.893 134.649C414.507 150.515 411.119 160.23 427.062 170.164C431.064 172.653 436.119 174.605 440.943 174.342L440.921 174.353Z" fill="url(#paint0_linear_289_522)"/>
<path d="M440.921 174.353C441.93 177.774 434.627 178.18 434.364 178.75C433.761 180.044 440.559 182.072 436.338 191.14C426.469 212.335 388.224 231.908 368.728 242.884C382.237 253.991 411.919 283.278 413.575 300.987C415.855 325.428 398.531 344.638 374.726 346.502L373.125 344.89C381.886 324.309 373.048 311.118 356.7 299.364C357.676 297.434 388.882 277.982 390.088 276.349C391.151 274.912 391.053 273.75 388.959 274.09C378.849 272.27 369.891 285.625 367.051 286.162C362.906 286.941 360.625 267.083 353.684 291.393C353.07 293.553 353.739 300.132 353.421 300.45C352.961 300.91 346.415 299.835 344.364 300.702C340.505 302.325 336.053 308.695 333.783 309.693C332.434 310.285 329.266 308.531 326.886 309.43C311.875 315.066 289.145 315.844 295.417 336.634C286.985 324.825 294.945 308.849 308.498 306.425C314.298 305.384 320.724 305.921 326.206 305.921C331.689 305.921 333.738 305.014 338.816 301.535C343.202 298.531 344.847 293.86 344.463 287.039C341.108 263.662 286.897 278.564 274.408 289.474C271.36 292.138 263.608 305.011 262.687 305.373C261.349 305.899 254.934 304.825 246.722 305.888C238.509 306.952 231.557 307.083 237.456 313.618C238.706 315 260.252 298.257 270.066 318.761C270.463 319.592 262.61 320.175 262.61 320.175C264.803 324.013 266.447 325.658 272.478 325.658C275.768 339.364 253.956 322.191 270.263 341.02H257.149C257.182 344.825 261.634 346.458 264.803 346.524L263.717 348.158C241.535 351.689 184.573 357.708 173.147 332.555C161.776 307.533 173.202 275.877 187.336 254.594C213.377 256.963 239.967 261.776 265.888 255.515C224.43 253.585 137.127 250.471 112.16 211.667C107.193 203.947 110.844 206.623 113.816 199.594L103.904 193.564C103.805 190.132 123.893 180.208 126.119 174.079C128.684 167.018 128.586 148.969 130.768 139.265C146.996 67.0285 214.331 47.4342 280.121 63.5965L270.285 55.9429L279.035 57.0175L276.272 51.5679C278.235 51.4473 281.963 58.5855 283.399 57.0175C284.101 56.2609 280.011 50.2412 283.937 50.4605L289.956 57.0285C290.263 55.5372 289.573 49.7368 289.956 49.3421C292.939 46.3377 333.476 52.3684 340.296 54.2763C385.932 67.0943 394.616 94.3201 408.893 134.649C414.507 150.515 411.119 160.23 427.062 170.164C431.064 172.653 436.119 174.605 440.943 174.342L440.921 174.353Z" fill="url(#paint1_linear_289_522)" fill-opacity="0.2"/>
<path d="M270.066 318.761C260.252 298.256 238.706 315 237.456 313.618C232.309 329.754 233.177 337.773 235.746 351.426C246.654 350.475 252.774 349.788 263.717 348.158L264.803 346.524C261.634 346.458 257.182 344.824 257.149 341.02H270.263C253.956 322.191 275.768 339.364 272.478 325.658C266.448 325.658 264.803 324.013 262.61 320.175C262.61 320.175 270.464 319.592 270.066 318.761Z" fill="url(#paint2_linear_289_522)"/>
<path d="M340.157 303.769C337.62 306.168 335.248 309.049 333.783 309.692C332.434 310.285 329.266 308.53 326.886 309.429C311.875 315.065 289.145 315.844 295.417 336.633C286.985 324.824 294.945 308.848 308.498 306.425C314.298 305.383 320.724 305.921 326.206 305.921C331.689 305.921 333.738 305.013 338.816 301.535C343.202 298.53 344.847 293.859 344.463 287.039C343.288 278.853 336.557 275.284 326.886 274.671C308.938 273.532 282.524 282.383 274.408 289.473C271.36 292.138 263.608 305.01 262.687 305.372C261.349 305.899 254.934 304.824 246.722 305.888C246.722 305.888 253.415 277.721 274.123 270.285C289.474 263.158 313.048 265.351 326.886 274.671C336.557 275.284 343.288 278.853 344.463 287.039C344.847 293.859 343.202 298.53 338.816 301.535L340.157 303.769Z" fill="white"/>
<path d="M109.649 207.785C162.827 253.289 288.379 241.776 288.379 241.776C359.528 236.382 397.275 228.675 421.89 208.302C428.075 202.248 433.96 195.476 440.243 187.5C434.882 195.629 428.922 202.482 421.89 208.302C408.329 221.574 393.324 231.391 369.517 242.873C379.587 249.498 388.308 261.166 399.123 273.575C394.737 273.575 391.537 273.909 388.706 274.123C384.868 273.575 379.922 275.387 375 279.605C370.03 271.737 366.514 268.655 358.554 262.61C342.015 266.879 331.864 267.971 312.501 268.092C296.743 265.037 287.666 263.83 265.9 273.575C240.63 273.172 227.573 272.018 202.301 272.478C190.91 274.063 181.831 283.706 169.408 298.794C171.89 282.912 173.977 272.88 187.5 254.386C223.137 258.772 237.937 259.32 265.351 255.482C171.585 254.37 129.548 241.833 109.649 207.785Z" fill="#3700FF" fill-opacity="0.33"/>
<path d="M441.184 174.081C442.193 177.502 434.891 177.908 434.627 178.478C434.024 179.772 440.823 181.8 436.601 190.868C392.259 252.469 146.097 255.21 111.009 206.417C111.009 206.417 110.461 202.579 114.079 199.322L104.167 193.292C104.068 189.86 124.156 179.936 126.382 173.807C128.948 166.746 128.849 148.697 131.031 138.993C147.259 66.7565 214.594 47.1622 280.384 63.3245L270.548 55.671L279.298 56.7455L276.535 51.296C278.498 51.1754 282.226 58.3135 283.662 56.7455C284.364 55.989 280.274 49.9692 284.2 50.1885L290.219 56.7565C290.526 55.2653 289.836 49.4648 290.219 49.0701C293.202 46.0657 333.739 52.0964 340.559 54.0043C386.195 66.8223 394.88 94.0482 409.156 134.377C414.77 150.243 411.382 159.958 427.325 169.892C431.327 172.382 436.382 174.333 441.206 174.07L441.184 174.081Z" fill="url(#paint3_linear_289_522)"/>
<path d="M441.184 174.081C442.193 177.502 434.891 177.908 434.627 178.478C434.024 179.772 440.823 181.8 436.601 190.868C392.259 252.469 146.097 255.21 111.009 206.417C111.009 206.417 110.461 202.579 114.079 199.322L104.167 193.292C104.068 189.86 124.156 179.936 126.382 173.807C128.948 166.746 128.849 148.697 131.031 138.993C147.259 66.7565 214.594 47.1622 280.384 63.3245L270.548 55.671L279.298 56.7455L276.535 51.296C278.498 51.1754 282.226 58.3135 283.662 56.7455C284.364 55.989 280.274 49.9692 284.2 50.1885L290.219 56.7565C290.526 55.2653 289.836 49.4648 290.219 49.0701C293.202 46.0657 333.739 52.0964 340.559 54.0043C386.195 66.8223 394.88 94.0482 409.156 134.377C414.77 150.243 411.382 159.958 427.325 169.892C431.327 172.382 436.382 174.333 441.206 174.07L441.184 174.081Z" fill="url(#paint4_linear_289_522)" fill-opacity="0.18"/>
<path d="M110.664 208.451C105.181 205.161 122.944 187.946 139.173 193.648C159.458 200.775 173.164 250.117 310.225 231.477C437.944 214.107 387.142 166.771 429.824 171.601C430.951 172.094 431.969 172.505 432.888 172.848C434.977 173.572 437.883 174.342 440.789 174.342C442.434 177.632 435.307 178.18 434.759 178.728C435.307 180.373 435.855 179.825 437.216 182.4C438.596 186.404 437.561 187.325 437.216 188.597C424.917 233.953 310.225 240.249 310.225 240.249C261.614 245.549 154.523 249.021 110.664 208.451Z" fill="url(#paint5_linear_289_522)"/>
<path d="M351.974 371.162C356.908 366.228 354.123 358.257 354.507 357.5C354.77 356.974 364.496 352.237 365.077 352.171C369.353 351.656 374.77 354.452 384.518 351.919C399.035 348.136 407.664 333.86 423.958 345.395C442.928 358.816 434.55 391.667 425.779 408.63C406.634 445.691 406.853 417.818 389.353 408.586C367.993 397.314 362.018 408.059 346.173 408.98C341.919 409.233 338.355 405.439 330.329 407.281C322.763 409.002 317.04 418.805 309.627 421.064C306.59 408.717 303.147 389.737 286.151 392.544C275.757 394.265 274.529 424.287 268.52 415.647C265.055 410.669 272.05 401.261 257.105 399.583C231.546 396.711 208.915 417.467 208.355 443.026C195.724 439.945 186.502 444.562 176.678 435.318C153.925 413.904 143.004 364.759 169.024 341.042C195.768 364.912 234.627 361.162 266.425 353.235C278.893 375.724 295.877 385.855 321.919 382.412C325.077 381.996 342.73 380.406 351.974 371.162Z" fill="url(#paint6_linear_289_522)"/>
<path d="M351.974 371.162C356.908 366.228 354.123 358.257 354.507 357.5C354.77 356.974 364.496 352.237 365.077 352.171C369.353 351.656 374.77 354.452 384.518 351.919C399.035 348.136 407.664 333.86 423.958 345.395C442.928 358.816 434.55 391.667 425.779 408.63C406.634 445.691 406.853 417.818 389.353 408.586C367.993 397.314 362.018 408.059 346.173 408.98C341.919 409.233 338.355 405.439 330.329 407.281C322.763 409.002 317.04 418.805 309.627 421.064C306.59 408.717 303.147 389.737 286.151 392.544C275.757 394.265 274.529 424.287 268.52 415.647C265.055 410.669 272.05 401.261 257.105 399.583C231.546 396.711 208.915 417.467 208.355 443.026C195.724 439.945 186.502 444.562 176.678 435.318C153.925 413.904 143.004 364.759 169.024 341.042C195.768 364.912 234.627 361.162 266.425 353.235C278.893 375.724 295.877 385.855 321.919 382.412C325.077 381.996 342.73 380.406 351.974 371.162Z" fill="url(#paint7_linear_289_522)" fill-opacity="0.37"/>
<path d="M119.254 248.915C111.447 256.426 103.059 259.211 99.2323 270.285C90.8441 294.583 101.019 317.369 117.105 336.031C121.37 340.976 146.962 361.722 147.565 363.684C148.453 366.568 145.515 370.603 145.625 373.443C146.414 393.86 150.877 411.963 163.015 428.706C119.133 433.816 53.4754 413.805 36.6224 368.443C31.0302 353.388 40.5478 344.616 38.2781 330.033C35.1859 329.671 36.5785 330.263 36.1399 331.689C34.4184 337.281 34.3855 348.037 33.914 354.145C30.9974 354.89 30.6136 350.526 30.0653 348.706C17.993 308.246 75.8987 239.298 119.265 248.904L119.254 248.915Z" fill="url(#paint8_linear_289_522)"/>
<path d="M119.254 248.915C111.447 256.426 103.059 259.211 99.2323 270.285C90.8441 294.583 101.019 317.369 117.105 336.031C121.37 340.976 146.962 361.722 147.565 363.684C148.453 366.568 145.515 370.603 145.625 373.443C146.414 393.86 150.877 411.963 163.015 428.706C119.133 433.816 53.4754 413.805 36.6224 368.443C31.0302 353.388 40.5478 344.616 38.2781 330.033C35.1859 329.671 36.5785 330.263 36.1399 331.689C34.4184 337.281 34.3855 348.037 33.914 354.145C30.9974 354.89 30.6136 350.526 30.0653 348.706C17.993 308.246 75.8987 239.298 119.265 248.904L119.254 248.915Z" fill="url(#paint9_linear_289_522)" fill-opacity="0.41"/>
<path d="M126.897 132.664C85.8774 116.469 85.7787 34.4079 132.16 25.5483C160.143 20.1974 187.27 32.6206 203.476 55.3838C165.088 70.2632 135.23 89.4737 126.886 132.664H126.897Z" fill="#D8F4FF"/>
<path d="M162.605 76.3938C164.88 72.9878 176.852 48.9457 138.706 24.6715C169.422 23.265 184.123 29.4067 203.947 55.373C188.779 60.3083 165.642 73.7345 162.605 76.3938C162.362 76.7572 162.23 76.8857 162.281 76.7546C162.311 76.6768 162.421 76.5551 162.605 76.3938Z" fill="url(#paint10_linear_289_522)"/>
<path d="M337.72 295.504C337.72 295.504 336.799 299.331 324.562 300.987C323.926 301.36 313.301 301.031 309.222 301.667C269.616 307.873 290.526 366.919 324.88 354.101L321.689 337.127C314.255 337.566 304.923 345.669 300.34 336.623C291.448 319.09 321.042 317.182 331.579 314.046C335.68 317.445 323.125 343.969 340.318 355.757C343.641 358.026 353.597 356.623 350.702 365.099C347.555 374.342 317.211 380.853 305 377.994C292.215 375 271.13 361.064 270.702 350.921C270.614 348.772 279.123 339.057 277.939 326.151C276.875 314.507 266.985 310.79 270.066 302.983C277.073 285.241 320.406 272.336 335.154 283.07C339.496 286.228 339.364 291.667 337.72 295.504Z" fill="url(#paint11_linear_289_522)"/>
<path d="M337.72 295.504C337.72 295.504 336.799 299.331 324.562 300.987C323.926 301.36 313.301 301.031 309.222 301.667C269.616 307.873 290.526 366.919 324.88 354.101L321.689 337.127C314.255 337.566 304.923 345.669 300.34 336.623C291.448 319.09 321.042 317.182 331.579 314.046C335.68 317.445 323.125 343.969 340.318 355.757C343.641 358.026 353.597 356.623 350.702 365.099C347.555 374.342 317.211 380.853 305 377.994C292.215 375 271.13 361.064 270.702 350.921C270.614 348.772 279.123 339.057 277.939 326.151C276.875 314.507 266.985 310.79 270.066 302.983C277.073 285.241 320.406 272.336 335.154 283.07C339.496 286.228 339.364 291.667 337.72 295.504Z" fill="url(#paint12_linear_289_522)" fill-opacity="0.56" style="mix-blend-mode:screen"/>
<path d="M337.72 295.504C337.72 295.504 336.799 299.331 324.562 300.987C323.926 301.36 313.301 301.031 309.222 301.667C269.616 307.873 290.526 366.919 324.88 354.101L321.689 337.127C314.255 337.566 304.923 345.669 300.34 336.623C291.448 319.09 321.042 317.182 331.579 314.046C335.68 317.445 323.125 343.969 340.318 355.757C343.641 358.026 353.597 356.623 350.702 365.099C347.555 374.342 317.211 380.853 305 377.994C292.215 375 271.13 361.064 270.702 350.921C270.614 348.772 279.123 339.057 277.939 326.151C276.875 314.507 266.985 310.79 270.066 302.983C277.073 285.241 320.406 272.336 335.154 283.07C339.496 286.228 339.364 291.667 337.72 295.504Z" fill="url(#paint13_linear_289_522)" fill-opacity="0.09" style="mix-blend-mode:lighten"/>
<path d="M309.649 446.261C313.695 448.815 342.5 415.855 347.829 429.44C349.144 432.796 335.263 471.052 333.728 477.609L324.868 475.186L333.684 441.875L305.274 461.612L294.298 429.824C289.758 434.397 286.787 462.949 281.107 463.333C279.737 463.421 273.991 461.425 273.695 459.101C273.377 456.601 287.105 412.061 289.506 411.337C300.669 407.971 306.392 439.254 309.649 446.261Z" fill="url(#paint14_linear_289_522)"/>
<path d="M309.649 446.261C313.695 448.815 342.5 415.855 347.829 429.44C349.144 432.796 335.263 471.052 333.728 477.609L324.868 475.186L333.684 441.875L305.274 461.612L294.298 429.824C289.758 434.397 286.787 462.949 281.107 463.333C279.737 463.421 273.991 461.425 273.695 459.101C273.377 456.601 287.105 412.061 289.506 411.337C300.669 407.971 306.392 439.254 309.649 446.261Z" fill="url(#paint15_linear_289_522)" fill-opacity="0.32" style="mix-blend-mode:lighten"/>
<path d="M366.24 424.605C372.27 423.475 400.011 425.361 401.492 432.653C401.722 433.782 397.742 439.221 396.382 439.55C394.584 439.989 361.974 426.096 362.117 439.133C362.215 449.177 409.759 436.162 403.454 465.197C399.573 483.059 359.134 480.668 349.496 468.201C354.123 454.057 362.665 467.028 373.641 468.201C380.527 468.936 395.943 468.958 393.378 458.344C389.825 451.513 361.305 456.842 353.992 447.324C346.218 437.214 355.889 426.546 366.24 424.616V424.605Z" fill="url(#paint16_linear_289_522)"/>
<path d="M366.24 424.605C372.27 423.475 400.011 425.361 401.492 432.653C401.722 433.782 397.742 439.221 396.382 439.55C394.584 439.989 361.974 426.096 362.117 439.133C362.215 449.177 409.759 436.162 403.454 465.197C399.573 483.059 359.134 480.668 349.496 468.201C354.123 454.057 362.665 467.028 373.641 468.201C380.527 468.936 395.943 468.958 393.378 458.344C389.825 451.513 361.305 456.842 353.992 447.324C346.218 437.214 355.889 426.546 366.24 424.616V424.605Z" fill="url(#paint17_linear_289_522)" fill-opacity="0.32" style="mix-blend-mode:lighten"/>
<path d="M230.856 476.974C229.014 462.127 241.009 468.838 253.038 464.66C258.29 462.84 270.11 455.23 266.437 448.465C261.108 438.684 227.61 469.046 219.079 449.847C210.549 430.647 245.428 416.02 260.406 419.945C263.597 436.568 233.323 425.833 228.367 441.108C224.452 453.18 254.737 436.798 259.847 436.393C280.845 434.737 272.38 445.439 269.2 457.917C268.498 460.658 270.812 464.079 270.099 465.801C269.496 467.281 248.992 476.963 246.722 476.963H230.856V476.974Z" fill="url(#paint18_linear_289_522)"/>
<path d="M230.856 476.974C229.014 462.127 241.009 468.838 253.038 464.66C258.29 462.84 270.11 455.23 266.437 448.465C261.108 438.684 227.61 469.046 219.079 449.847C210.549 430.647 245.428 416.02 260.406 419.945C263.597 436.568 233.323 425.833 228.367 441.108C224.452 453.18 254.737 436.798 259.847 436.393C280.845 434.737 272.38 445.439 269.2 457.917C268.498 460.658 270.812 464.079 270.099 465.801C269.496 467.281 248.992 476.963 246.722 476.963H230.856V476.974Z" fill="url(#paint19_linear_289_522)" fill-opacity="0.32" style="mix-blend-mode:lighten"/>
<path d="M288.377 154.605C253.728 155.482 225.974 180.998 224.781 190.241C222.588 207.237 237.939 230.263 298.246 228.618C345.944 225.877 363.487 195.724 357.457 186.946C352.522 178.728 315.789 153.911 288.377 154.605Z" fill="white"/>
<path d="M345.943 91.5574C317.828 85.0693 316.338 156.25 332.237 166.119C350.147 168.677 387.61 166.119 387.61 161.733C387.61 150.768 381.579 99.7809 345.943 91.5574Z" fill="white"/>
<path d="M340.263 347.609C355.318 339.66 339.21 344.857 339.199 341.557C339.199 340.789 349.485 333.958 346.82 328.947L335.91 336.623C328.355 322.818 360.406 307.741 336.995 316.886C339.868 294.232 369.002 304.473 371.919 321.908C375.033 340.482 357.072 362.039 340.274 347.62L340.263 347.609Z" fill="url(#paint20_linear_289_522)"/>
<path d="M308.553 424.342C323.969 415.877 342.029 394.463 351.228 423.783C333.509 416.491 327.434 430.91 313.454 438.553C308.454 437.61 305.735 398.158 285.822 407.511C283.333 408.684 279.594 429.781 276.25 418.816C274.726 413.827 281.086 395.636 287.138 394.846C301.996 392.895 305.175 414.167 308.564 424.353L308.553 424.342Z" fill="url(#paint21_linear_289_522)"/>
<path d="M263.41 403.772C265.932 406.327 263.695 413.684 265.757 417.039C268.761 421.941 284.287 419.167 276.798 435.307C255.252 429.792 268.739 426.732 264.232 417.752C258.366 406.074 214.726 424.309 213.366 437.5C213.553 419.682 226.349 408.004 242.873 404.046C247.116 403.026 260.318 400.658 263.41 403.783V403.772Z" fill="url(#paint22_linear_289_522)"/>
<path d="M431.075 468.19C434.902 455.964 435.022 443.695 423.092 436.162L409.189 432.028C419.628 429.715 440.033 429.331 446.217 440.416C452.336 451.381 445.154 469.769 431.075 468.19Z" fill="url(#paint23_linear_289_522)"/>
<path d="M431.075 468.19C434.902 455.964 435.022 443.695 423.092 436.162L409.189 432.028C419.628 429.715 440.033 429.331 446.217 440.416C452.336 451.381 445.154 469.769 431.075 468.19Z" fill="url(#paint24_linear_289_522)" fill-opacity="0.4"/>
<path d="M401.513 426.535C394.451 422.686 385.011 419.024 376.918 418.805C369.66 418.618 354.287 425.153 353.388 424.342C352.894 423.892 352.006 413.772 349.013 411.809C366.546 401.162 393.059 407.05 401.502 426.535H401.513Z" fill="url(#paint25_linear_289_522)"/>
<path d="M411.382 468.191C418.564 459.649 399.496 439.858 408.794 436.327C425.713 429.901 444.814 475.647 411.382 468.191Z" fill="url(#paint26_linear_289_522)"/>
<path d="M411.382 468.191C418.564 459.649 399.496 439.858 408.794 436.327C425.713 429.901 444.814 475.647 411.382 468.191Z" fill="url(#paint27_linear_289_522)" fill-opacity="0.4"/>
<path d="M191.469 446.283C176.678 449.485 181.096 475.603 180.088 477.018C174.857 484.353 160.68 472.511 166.206 458.783C168.52 453.026 184.901 445.307 191.469 446.283Z" fill="url(#paint28_linear_289_522)"/>
<path d="M191.469 446.283C176.678 449.485 181.096 475.603 180.088 477.018C174.857 484.353 160.68 472.511 166.206 458.783C168.52 453.026 184.901 445.307 191.469 446.283Z" fill="url(#paint29_linear_289_522)" fill-opacity="0.4"/>
<path d="M205.68 447.379C202.993 452.215 197.018 452.708 195.263 459.408C193.509 466.107 199.232 483.18 188.213 478.607C175.329 473.278 188.355 440.91 205.68 447.379Z" fill="url(#paint30_linear_289_522)"/>
<path d="M205.68 447.379C202.993 452.215 197.018 452.708 195.263 459.408C193.509 466.107 199.232 483.18 188.213 478.607C175.329 473.278 188.355 440.91 205.68 447.379Z" fill="url(#paint31_linear_289_522)" fill-opacity="0.4"/>
<path d="M211.151 451.765C211.842 452.39 206.404 466.349 206.744 469.923C207.051 473.289 217.456 483.202 203.18 477.851C193.202 474.112 198.399 449.781 211.162 451.765H211.151Z" fill="url(#paint32_linear_289_522)"/>
<path d="M211.151 451.765C211.842 452.39 206.404 466.349 206.744 469.923C207.051 473.289 217.456 483.202 203.18 477.851C193.202 474.112 198.399 449.781 211.162 451.765H211.151Z" fill="url(#paint33_linear_289_522)" fill-opacity="0.4"/>
<path d="M450.779 462.719C453.06 449.759 454.112 438.739 440.921 432.028C455.285 433.596 467.084 454.967 450.779 462.719Z" fill="url(#paint34_linear_289_522)"/>
<path d="M450.779 462.719C453.06 449.759 454.112 438.739 440.921 432.028C455.285 433.596 467.084 454.967 450.779 462.719Z" fill="url(#paint35_linear_289_522)" fill-opacity="0.4"/>
<path d="M319.43 343.246C319.66 343.432 320.515 348.871 320.406 349.145C318.783 353.334 304.068 350.45 301.974 345.932C305.581 346.93 317.544 341.744 319.43 343.246Z" fill="white"/>
<path d="M219.847 94.8463C181.469 86.0748 166.118 143.092 169.956 172.698C179.825 172.698 220.682 181.324 235.197 173.246C247.259 160.636 252.741 109.101 219.847 94.8463Z" fill="white"/>
<path d="M170.679 138.706C174.342 105.198 214.791 73.4762 237.401 110.746C203.958 82.7087 176.217 116.799 175.011 151.831C174.605 163.739 172.182 171.788 186.524 171.119H189.693C181.173 155.889 187.456 124.419 205.427 118.728C234.704 109.463 250.493 143.224 239.802 167.435C230.7 188.048 187.5 173.257 170.668 173.257C167.5 173.257 169.484 149.529 170.668 138.717L170.679 138.706Z" fill="#1A1659"/>
<path d="M387.467 163.224C387.423 163.564 390.022 162.763 389.485 164.463C356.502 169.89 318.289 186.535 326.327 133.52C333.936 83.2894 393.86 127.423 373.081 163.366C374.594 163.147 383.574 161.524 383.892 161.064C387.138 156.414 379.353 125.274 376.535 118.794C364.517 91.0745 335.34 80.932 323.849 115.132C326.053 80.8772 354.32 80.9868 373.026 104.759C385.406 120.493 389.792 143.827 387.456 163.224H387.467Z" fill="#1A1659"/>
<path d="M298.246 184.759C289.474 185.197 279.605 172.88 275.768 166.667C288.012 165.387 312.61 162.939 313.048 163.377C313.597 163.925 309.211 184.21 298.246 184.759Z" fill="#5865F0"/>
<path d="M276.316 164.474C279.057 159.54 306.469 154.606 313.483 164.044C317.434 173.794 269.737 177.084 276.316 164.474Z" fill="#9ACDF1"/>
<path d="M275.768 166.119C275.219 160.088 305.373 153.51 313.483 164.044C305.263 164.591 287.833 164.473 275.768 166.119Z" fill="#48B8CC"/>
<path d="M258.772 191.337C260.234 188.048 268.64 198.465 279.057 198.465C285.088 199.561 303.048 199.265 299.287 188.541C288.98 185.614 275.8 179.287 275.724 166.666C290.077 188.355 306.184 193.717 312.928 163.377C324.189 173.278 297.982 186.776 302.993 194.715C309.627 205.219 328.296 184.057 329.945 184.276C337.719 185.307 313.487 200.427 312.39 201.776C309.243 205.647 312.039 214.342 300.296 214.934C288.553 215.526 287.61 207.05 283.344 204.517C275.724 204.517 257.31 194.627 258.772 191.337Z" fill="black"/>
<path d="M208.969 126.107C195.164 138.816 194.156 156.195 203.487 172.138C183.267 170.471 190.482 128.849 208.969 126.107Z" fill="#5EA9FF"/>
<path d="M215.164 132.928C222.654 132.412 225.055 146.689 215.976 146.941C208.246 147.16 207.829 133.432 215.164 132.928Z" fill="white"/>
<path d="M237.412 154.616C236.162 167.116 230.592 180.625 215.537 175.428C219.715 171.886 224.945 171.963 229.265 167.818C233.816 163.454 233.245 157.851 237.412 154.616Z" fill="url(#paint36_linear_289_522)"/>
<path d="M348.683 115.131C348.683 115.131 366.776 122.807 366.776 147.478C366.776 159.803 342.105 175.438 331.14 145.833C329.242 158.422 339.288 169.387 351.974 168.311C363.137 167.365 372.259 158.66 372.259 147.478C372.259 124.999 348.683 115.131 348.683 115.131Z" fill="url(#paint37_linear_289_522)"/>
<path d="M339.934 126.25C347.741 124.288 350.154 141.711 341.722 142.292C333.29 142.873 334.474 127.621 339.934 126.25Z" fill="white"/>
<path d="M298.684 202.851C303.146 216.853 284.912 208.169 287.752 205.055L298.684 202.851Z" fill="white"/>
<path d="M308.18 206.897C307.38 207.917 302.687 210.241 301.985 209.419V199.562C306.766 199.638 312.347 201.557 308.18 206.897Z" fill="white"/>
<path d="M354.715 358.553C354.167 359.101 356.908 366.228 351.974 371.162C342.73 380.406 325.077 381.995 321.919 382.412C295.877 385.855 278.892 375.724 266.425 353.234C260.944 354.601 251.964 356.458 246.162 357.456C246.014 374.373 247.151 383.408 249.452 399.418C251.96 399.244 254.517 399.292 257.105 399.583C272.05 401.261 265.055 410.669 268.52 415.647C274.528 424.287 275.756 394.265 286.151 392.544C303.147 389.737 306.59 408.717 309.627 421.063C317.039 418.805 322.763 409.002 330.329 407.281C338.355 405.438 341.919 409.232 346.173 408.98C349.665 408.777 352.677 408.097 355.481 407.281C357.456 389.803 359.101 381.031 354.715 358.553Z" fill="white" fill-opacity="0.55"/>
<path d="M330.329 407.281C338.355 405.438 341.919 409.232 346.173 408.98C347.444 408.906 347.527 409.164 348.684 408.98C352.381 394.517 352.308 386.995 350.877 372.259C341.557 380.483 325.077 381.995 321.919 382.412C295.877 385.855 278.892 375.724 266.425 353.234C260.944 354.601 251.964 356.458 246.162 357.456C246.014 374.373 250.988 383.317 253.289 399.327C254.552 399.355 255.825 399.439 257.105 399.583C272.05 401.261 265.055 410.669 268.52 415.647C274.528 424.287 275.756 394.265 286.151 392.544C303.147 389.737 306.59 408.717 309.627 421.063C317.039 418.805 322.763 409.002 330.329 407.281Z" fill="white"/>
<path d="M371.151 63.5556C369.591 62.461 364.643 30.1712 363.103 30.7487C358.717 32.3934 362.77 58.4958 360.946 57.6127C340.753 47.8369 317.982 46.6367 317.982 46.6367C351.403 -23.1659 421.765 33.9613 401.129 94.3451C400.055 95.1455 392.906 78.8187 371.151 63.5556Z" fill="url(#paint38_linear_289_522)"/>
<path d="M361.294 58.1135C344.984 51.7174 334.483 48.7807 317.27 46.5897C337.171 6.03046 365.132 15.3509 365.132 15.3509C355.812 21.3816 362.391 42.7631 361.294 58.1135Z" fill="url(#paint39_linear_289_522)"/>
<path d="M362.994 30.7017C362.446 61.9517 365.733 62.4999 381.634 71.8201C385.472 53.1797 377.249 30.7017 362.994 30.7017Z" fill="url(#paint40_linear_289_522)"/>
<path d="M217.498 59.7893C185.754 64.0436 159.415 79.8227 144.043 105.416C143.729 105.938 144.385 106.455 144.851 106.062C178.149 78.0181 185.601 71.3215 217.695 60.787C218.319 60.5821 218.149 59.7021 217.498 59.7893Z" fill="#F8FCFF" fill-opacity="0.76"/>
<path d="M351.514 63.0162L338.741 55.662C338.174 55.3352 338.598 54.3087 339.234 54.4672C348.937 56.8866 364.4 60.6716 381.031 77.3025C396.028 95.1121 399.006 105.309 402.98 118.512C403.175 119.162 402.125 119.584 401.811 118.982C384.792 86.4564 371.14 74.8263 345.376 67.348C344.866 67.2001 344.828 66.4816 345.325 66.2953L351.433 64.0046C351.867 63.8419 351.916 63.2474 351.514 63.0162Z" fill="#F4FAFF" fill-opacity="0.75"/>
<path d="M156.25 362.39C157.63 355.145 161.721 348.366 168.86 341.009C194.602 358.698 213.71 360.975 246.162 357.456L246.711 376.645C214.334 382.816 195.232 378.158 173.794 352.522C170.717 352.72 165.478 357.093 156.25 362.39Z" fill="#1A0079" fill-opacity="0.47"/>
<path d="M205.114 350.329C177.631 345.943 167.422 334.608 168.311 311.403C173.514 332.278 181.901 340.918 205.114 350.329C226.613 345.44 235.197 347.039 235.746 351.425C222.335 353.14 217.364 352.071 205.114 350.329Z" fill="#1A0079" fill-opacity="0.47"/>
<path d="M423.245 344.847C398.574 379.396 381.335 382.878 356.908 372.807C356.067 365.837 355.573 362.203 354.167 357.456C360.142 353.069 362.872 352.557 365.68 351.974C376.645 353.071 379.934 354.715 394.737 347.588C401.864 343.202 402.412 342.654 410.088 341.009C415.57 340.461 420.504 342.654 423.245 344.847Z" fill="#1A0079" fill-opacity="0.47"/>
<path d="M104.257 82.7852C103.67 61.723 108.427 36.0401 129.476 35.0879C150.22 34.1494 151.258 51.5733 158.991 79.4955C145.285 89.3639 133.223 105.812 128.289 126.645C115.85 119.17 104.801 102.309 104.257 82.7852Z" fill="url(#paint41_linear_289_522)"/>
<path d="M118.465 78.4024C117.82 63.3908 124.275 45.7815 139.298 46.0559C149.714 47.1514 152.368 55.9596 158.991 79.4957C147.846 88.8359 142.651 94.8394 135.965 106.908C126.023 104.239 119.035 91.6922 118.465 78.4024Z" fill="url(#paint42_linear_289_522)"/>
<path d="M84.9781 412.281L69.6272 406.798C95.4762 425.247 109.231 429.223 163.925 430.373C112.411 413.601 86.6573 400.342 57.0176 362.938C62.1585 383.86 68.6538 394.569 84.9781 412.281Z" fill="black" fill-opacity="0.12"/>
<path d="M233.712 353.546C226.974 339.364 234.649 299.342 237.192 310.236C238.337 311.497 237.74 314.191 237.74 314.191C233.223 319.707 233.822 341.027 236.23 353.546C236.23 353.546 241.752 355.164 233.712 353.546Z" fill="#1A1659"/>
<path d="M38.6295 315.677C36.0361 331.583 35.7529 337.982 33.9909 354.167C33.7442 354.302 32.1176 354.604 31.2502 352.958C19.8274 332.015 39.3778 272.78 96.7435 249.34C108.182 246.843 119.73 248.706 119.517 248.904C119.305 249.101 103.618 260.417 102.522 264.255C93.141 278.87 94.8464 298.794 102.226 314.033C106.577 321.949 112.985 332.203 121.162 340.461C132.675 350.329 145.794 360.756 148.026 364.584L145.833 372.259C101.425 359.103 75.9652 306.921 84.1339 267.98C65.8613 297.935 57.4503 315.838 51.2391 352.958C40.8201 335.785 37.3642 327.292 38.6295 315.677Z" fill="white" fill-opacity="0.7"/>
<path d="M350.877 372.259C315.177 388.046 297.907 387.389 273.575 364.035C273.575 364.035 291.508 390.487 309.211 392.544C327.187 394.633 350.877 372.259 350.877 372.259Z" fill="#4000FF" fill-opacity="0.19"/>
<path d="M326.754 305.921C314.262 308.661 303.215 312.557 292.215 322.916C292.418 318.306 293.38 315.425 299.89 308.661C310.173 304.915 319.081 304.655 326.754 305.921Z" fill="#4000FF" fill-opacity="0.19"/>
<path d="M320.176 343.75L304.276 348.684C302.729 347.954 301.535 346.491 301.535 345.943C301.535 345.395 308.662 344.846 317.982 342.653C319.571 342.935 319.84 342.483 320.176 343.75Z" fill="#4000FF" fill-opacity="0.19"/>
<defs>
<linearGradient id="paint0_linear_289_522" x1="271.93" y1="239.583" x2="349.781" y2="418.311" gradientUnits="userSpaceOnUse">
<stop stop-color="#629BFF"/>
<stop offset="1" stop-color="#3B5D99"/>
</linearGradient>
<linearGradient id="paint1_linear_289_522" x1="129.934" y1="265.899" x2="436.404" y2="351.974" gradientUnits="userSpaceOnUse">
<stop stop-color="#F6B259"/>
<stop offset="1" stop-color="white" stop-opacity="0"/>
</linearGradient>
<linearGradient id="paint2_linear_289_522" x1="256.031" y1="305.373" x2="245.066" y2="337.171" gradientUnits="userSpaceOnUse">
<stop stop-color="#FD8E26"/>
<stop offset="0.0001" stop-color="#FCEE69"/>
<stop offset="1" stop-color="#DAA701"/>
</linearGradient>
<linearGradient id="paint3_linear_289_522" x1="265.066" y1="43.0394" x2="299.605" y2="237.118" gradientUnits="userSpaceOnUse">
<stop stop-color="#FCD572"/>
<stop offset="0.561" stop-color="#FFB145"/>
<stop offset="1" stop-color="#DB6262"/>
</linearGradient>
<linearGradient id="paint4_linear_289_522" x1="132.39" y1="138.434" x2="450.921" y2="188.873" gradientUnits="userSpaceOnUse">
<stop stop-color="#FC7E00"/>
<stop offset="1" stop-color="#0026FF"/>
</linearGradient>
<linearGradient id="paint5_linear_289_522" x1="145.285" y1="102.522" x2="489.035" y2="239.583" gradientUnits="userSpaceOnUse">
<stop offset="0.285" stop-color="#F8F8FA"/>
<stop offset="0.325" stop-color="#F4CCEF"/>
<stop offset="0.391" stop-color="#CCE0FF"/>
</linearGradient>
<linearGradient id="paint6_linear_289_522" x1="185.307" y1="353.619" x2="432.018" y2="484.101" gradientUnits="userSpaceOnUse">
<stop stop-color="#60B5FF"/>
<stop offset="1" stop-color="#005DFF"/>
</linearGradient>
<linearGradient id="paint7_linear_289_522" x1="223.136" y1="420.505" x2="449.013" y2="378.29" gradientUnits="userSpaceOnUse">
<stop stop-opacity="0"/>
<stop offset="1"/>
</linearGradient>
<linearGradient id="paint8_linear_289_522" x1="145.833" y1="409.54" x2="69.627" y2="341.557" gradientUnits="userSpaceOnUse">
<stop stop-color="#DE8E1F"/>
<stop offset="1" stop-color="#EDA030"/>
</linearGradient>
<linearGradient id="paint9_linear_289_522" x1="28.5086" y1="322.368" x2="152.96" y2="395.833" gradientUnits="userSpaceOnUse">
<stop stop-color="#51A7FF" stop-opacity="0"/>
<stop offset="1" stop-color="#104D8B"/>
</linearGradient>
<linearGradient id="paint10_linear_289_522" x1="190.495" y1="26.9064" x2="182.128" y2="49.355" gradientUnits="userSpaceOnUse">
<stop stop-color="#F38B4D"/>
<stop offset="1" stop-color="#F49B67"/>
</linearGradient>
<linearGradient id="paint11_linear_289_522" x1="310.307" y1="311.404" x2="345.395" y2="378.29" gradientUnits="userSpaceOnUse">
<stop stop-color="#5CCD96"/>
<stop offset="1" stop-color="#0D7442"/>
</linearGradient>
<linearGradient id="paint12_linear_289_522" x1="288.926" y1="316.886" x2="337.72" y2="277.412" gradientUnits="userSpaceOnUse">
<stop stop-opacity="0"/>
<stop offset="1" stop-color="white"/>
</linearGradient>
<linearGradient id="paint13_linear_289_522" x1="261.513" y1="256.579" x2="322.917" y2="312.5" gradientUnits="userSpaceOnUse">
<stop stop-opacity="0"/>
<stop offset="1" stop-color="#5AB0FF"/>
</linearGradient>
<linearGradient id="paint14_linear_289_522" x1="310.803" y1="411.085" x2="310.803" y2="477.609" gradientUnits="userSpaceOnUse">
<stop stop-color="#5DCE96"/>
<stop offset="1" stop-color="#138D51"/>
</linearGradient>
<linearGradient id="paint15_linear_289_522" x1="310.803" y1="411.085" x2="310.803" y2="477.609" gradientUnits="userSpaceOnUse">
<stop offset="0.301" stop-color="white" stop-opacity="0"/>
<stop offset="0.525" stop-color="white"/>
<stop offset="0.68" stop-color="white" stop-opacity="0"/>
</linearGradient>
<linearGradient id="paint16_linear_289_522" x1="376.763" y1="424.302" x2="376.763" y2="478.074" gradientUnits="userSpaceOnUse">
<stop stop-color="#5DCE96"/>
<stop offset="1" stop-color="#138D51"/>
</linearGradient>
<linearGradient id="paint17_linear_289_522" x1="376.763" y1="424.302" x2="376.763" y2="478.074" gradientUnits="userSpaceOnUse">
<stop offset="0.301" stop-color="white" stop-opacity="0"/>
<stop offset="0.525" stop-color="white"/>
<stop offset="0.68" stop-color="white" stop-opacity="0"/>
</linearGradient>
<linearGradient id="paint18_linear_289_522" x1="245.674" y1="419.305" x2="245.674" y2="476.974" gradientUnits="userSpaceOnUse">
<stop stop-color="#5DCE96"/>
<stop offset="1" stop-color="#138D51"/>
</linearGradient>
<linearGradient id="paint19_linear_289_522" x1="245.674" y1="419.305" x2="245.674" y2="476.974" gradientUnits="userSpaceOnUse">
<stop offset="0.301" stop-color="white" stop-opacity="0"/>
<stop offset="0.525" stop-color="white"/>
<stop offset="0.68" stop-color="white" stop-opacity="0"/>
</linearGradient>
<linearGradient id="paint20_linear_289_522" x1="341.009" y1="302.083" x2="355.134" y2="341.68" gradientUnits="userSpaceOnUse">
<stop stop-color="#FD8E26"/>
<stop offset="0.0001" stop-color="#FCEE69"/>
<stop offset="0.741" stop-color="#DAA701"/>
</linearGradient>
<linearGradient id="paint21_linear_289_522" x1="313.625" y1="394.721" x2="313.625" y2="438.553" gradientUnits="userSpaceOnUse">
<stop stop-color="#5DCE96"/>
<stop offset="1" stop-color="#2B7651"/>
</linearGradient>
<linearGradient id="paint22_linear_289_522" x1="246.092" y1="402.224" x2="246.092" y2="437.5" gradientUnits="userSpaceOnUse">
<stop stop-color="#5DCE96"/>
<stop offset="1" stop-color="#2B7651"/>
</linearGradient>
<linearGradient id="paint23_linear_289_522" x1="413.563" y1="435.365" x2="455.862" y2="443.831" gradientUnits="userSpaceOnUse">
<stop stop-color="#60B5FF"/>
<stop offset="1" stop-color="#649DFF"/>
</linearGradient>
<linearGradient id="paint24_linear_289_522" x1="418.834" y1="459.993" x2="451.246" y2="457.701" gradientUnits="userSpaceOnUse">
<stop stop-opacity="0"/>
<stop offset="1" stop-color="#304CFF"/>
</linearGradient>
<linearGradient id="paint25_linear_289_522" x1="375.263" y1="406.565" x2="375.263" y2="426.535" gradientUnits="userSpaceOnUse">
<stop stop-color="#5DCE96"/>
<stop offset="1" stop-color="#2B7651"/>
</linearGradient>
<linearGradient id="paint26_linear_289_522" x1="408.813" y1="439.832" x2="434.809" y2="443.364" gradientUnits="userSpaceOnUse">
<stop stop-color="#60B5FF"/>
<stop offset="1" stop-color="#649DFF"/>
</linearGradient>
<linearGradient id="paint27_linear_289_522" x1="411.986" y1="461.664" x2="431.544" y2="460.725" gradientUnits="userSpaceOnUse">
<stop stop-opacity="0"/>
<stop offset="1" stop-color="#304CFF"/>
</linearGradient>
<linearGradient id="paint28_linear_289_522" x1="167.906" y1="450.294" x2="196.964" y2="454.763" gradientUnits="userSpaceOnUse">
<stop stop-color="#60B5FF"/>
<stop offset="1" stop-color="#649DFF"/>
</linearGradient>
<linearGradient id="paint29_linear_289_522" x1="171.47" y1="471.965" x2="193.429" y2="470.772" gradientUnits="userSpaceOnUse">
<stop stop-opacity="0"/>
<stop offset="1" stop-color="#304CFF"/>
</linearGradient>
<linearGradient id="paint30_linear_289_522" x1="185.538" y1="450.597" x2="210.527" y2="453.904" gradientUnits="userSpaceOnUse">
<stop stop-color="#60B5FF"/>
<stop offset="1" stop-color="#649DFF"/>
</linearGradient>
<linearGradient id="paint31_linear_289_522" x1="188.584" y1="472.126" x2="207.37" y2="471.247" gradientUnits="userSpaceOnUse">
<stop stop-opacity="0"/>
<stop offset="1" stop-color="#304CFF"/>
</linearGradient>
<linearGradient id="paint32_linear_289_522" x1="199.428" y1="455.088" x2="214.18" y2="456.44" gradientUnits="userSpaceOnUse">
<stop stop-color="#60B5FF"/>
<stop offset="1" stop-color="#649DFF"/>
</linearGradient>
<linearGradient id="paint33_linear_289_522" x1="201.21" y1="473.28" x2="212.213" y2="472.923" gradientUnits="userSpaceOnUse">
<stop stop-opacity="0"/>
<stop offset="1" stop-color="#304CFF"/>
</linearGradient>
<linearGradient id="paint34_linear_289_522" x1="442.9" y1="435.83" x2="462.563" y2="438.01" gradientUnits="userSpaceOnUse">
<stop stop-color="#60B5FF"/>
<stop offset="1" stop-color="#649DFF"/>
</linearGradient>
<linearGradient id="paint35_linear_289_522" x1="445.285" y1="455.946" x2="460.001" y2="455.369" gradientUnits="userSpaceOnUse">
<stop stop-opacity="0"/>
<stop offset="1" stop-color="#304CFF"/>
</linearGradient>
<linearGradient id="paint36_linear_289_522" x1="237.39" y1="153.509" x2="219.847" y2="176.535" gradientUnits="userSpaceOnUse">
<stop stop-color="#52A3FF"/>
<stop offset="1" stop-color="#5C91CF"/>
</linearGradient>
<linearGradient id="paint37_linear_289_522" x1="356.908" y1="113.487" x2="347.588" y2="147.478" gradientUnits="userSpaceOnUse">
<stop stop-color="#BDB9F4"/>
<stop offset="1" stop-color="#5EA9FF"/>
</linearGradient>
<linearGradient id="paint38_linear_289_522" x1="360.705" y1="14.5061" x2="360.705" y2="94.326" gradientUnits="userSpaceOnUse">
<stop stop-color="#BDDEFB"/>
<stop offset="1" stop-color="#4F5CCF"/>
</linearGradient>
<linearGradient id="paint39_linear_289_522" x1="355.263" y1="16.4495" x2="347.588" y2="34.5416" gradientUnits="userSpaceOnUse">
<stop stop-color="#F38B4D"/>
<stop offset="1" stop-color="#F49B67"/>
</linearGradient>
<linearGradient id="paint40_linear_289_522" x1="372.757" y1="30.7017" x2="372.757" y2="71.8201" gradientUnits="userSpaceOnUse">
<stop offset="0.485" stop-color="#3286F3"/>
<stop offset="1" stop-color="#1D4E8D"/>
</linearGradient>
<linearGradient id="paint41_linear_289_522" x1="131.151" y1="34.9971" x2="131.151" y2="126.59" gradientUnits="userSpaceOnUse">
<stop stop-color="#BDE4FB"/>
<stop offset="1" stop-color="#4F62CF"/>
</linearGradient>
<linearGradient id="paint42_linear_289_522" x1="138.706" y1="46.0527" x2="138.706" y2="106.908" gradientUnits="userSpaceOnUse">
<stop offset="0.121" stop-color="#5F8FCD"/>
<stop offset="1" stop-color="#1D4E8D"/>
</linearGradient>
</defs>
</svg>
